<svg width="24" height="25" viewBox="0 0 24 25" fill="none" xmlns="http://www.w3.org/2000/svg">
<path d="M22.56 12.75C22.56 11.97 22.49 11.22 22.36 10.5H12V14.76H17.92C17.66 16.13 16.88 17.29 15.71 18.07V20.84H19.28C21.36 18.92 22.56 16.1 22.56 12.75Z" fill="#4285F4"/>
<path d="M12.0001 23.5001C14.9701 23.5001 17.4601 22.5201 19.2801 20.8401L15.7101 18.0701C14.7301 18.7301 13.4801 19.1301 12.0001 19.1301C9.14005 19.1301 6.71005 17.2001 5.84005 14.6001H2.18005V17.4401C3.99005 21.0301 7.70005 23.5001 12.0001 23.5001Z" fill="#34A853"/>
<path d="M5.84 14.5898C5.62 13.9298 5.49 13.2298 5.49 12.4998C5.49 11.7698 5.62 11.0698 5.84 10.4098V7.56982H2.18C1.43 9.04982 1 10.7198 1 12.4998C1 14.2798 1.43 15.9498 2.18 17.4298L5.03 15.2098L5.84 14.5898Z" fill="#FBBC05"/>
<path d="M12.0001 5.88C13.6201 5.88 15.0601 6.44 16.2101 7.52L19.3601 4.37C17.4501 2.59 14.9701 1.5 12.0001 1.5C7.70005 1.5 3.99005 3.97 2.18005 7.57L5.84005 10.41C6.71005 7.81 9.14005 5.88 12.0001 5.88Z" fill="#EA4335"/>
</svg>
