<svg xmlns="http://www.w3.org/2000/svg" width="24" height="24" viewBox="0 0 630 430"><path fill="rgba(255, 227, 150, 1.0)" d="m172.65 385.02 31.53 16.62v38.3l-31.53-16.61v-38.3zm0-9.26 31.53 16.62v-41.5l-31.53-16.62v41.5zm39.65-20.6v41.5l31.4 16.56v-41.5l-31.4-16.56zm0 89.07 31.4 16.55v-38.3l-31.4-16.55v38.3zM481.76 286.41v162.43a6.1 6.1 0 0 1-3.25 5.39l-41.44 21.6a3.27 3.27 0 0 1-4.78-2.9V337.96c0-3.57-3.8-5.86-6.96-4.2l-70.9 37.52v148.1L300 548.33v-166.1l181.76-95.83z"/><path fill="#1A1A1A" d="M592.2 202.34 306.82 51.88a14.6 14.6 0 0 0-13.62 0L7.79 202.34c-10.39 5.48-10.39 20.36 0 25.84l49.73 26.22v85.33a13.83 13.83 0 0 0-3.9 20.58l-3.95 35.98a3.96 3.96 0 0 0 3.9 4.63h21.76a3.96 3.96 0 0 0 3.9-4.63l-3.94-35.97a13.83 13.83 0 0 0-3.9-20.58V261.7l46.85 24.7v162.43a6.1 6.1 0 0 0 3.26 5.39l178.5 94.1v-166.1l181.76-95.82 110.45-58.23c10.39-5.48 10.39-20.36 0-25.84zm-388.02 237.6-31.53-16.62v-38.3l31.53 16.62v38.3zm0-47.56-31.53-16.62v-41.5l31.53 16.62v41.5zm39.52 68.4-31.4-16.55v-38.3l31.4 16.55v38.3zm0-47.56-31.4-16.56v-41.5l31.4 16.55v41.5zm174.83-4.87v136.02a5.43 5.43 0 0 1-7.96 4.8l-56.14-29.6V371.28l61.2 32.27a5.43 5.43 0 0 1 2.9 4.8z"/></svg>