<svg width="20" height="20" viewBox="0 0 20 20" fill="none" xmlns="http://www.w3.org/2000/svg">
<path fill-rule="evenodd" clip-rule="evenodd" d="M9 3.50039C7.54131 3.50039 6.14236 4.07985 5.11091 5.1113C4.07946 6.14275 3.5 7.5417 3.5 9.00039C3.5 10.4591 4.07946 11.858 5.11091 12.8895C6.14236 13.9209 7.54131 14.5004 9 14.5004C10.4587 14.5004 11.8576 13.9209 12.8891 12.8895C13.9205 11.858 14.5 10.4591 14.5 9.00039C14.5 7.5417 13.9205 6.14275 12.8891 5.1113C11.8576 4.07985 10.4587 3.50039 9 3.50039ZM2 9.00039C2.00009 7.88106 2.26861 6.77807 2.78303 5.78395C3.29745 4.78983 4.04276 3.93356 4.95645 3.28698C5.87015 2.6404 6.92557 2.22236 8.0342 2.06792C9.14282 1.91349 10.2723 2.02716 11.3279 2.39941C12.3836 2.77166 13.3345 3.39162 14.101 4.2073C14.8676 5.02298 15.4273 6.01059 15.7333 7.08728C16.0393 8.16397 16.0827 9.29834 15.8597 10.3952C15.6368 11.4921 15.154 12.5196 14.452 13.3914L17.78 16.7204C17.8537 16.789 17.9128 16.8718 17.9538 16.9638C17.9948 17.0558 18.0168 17.1552 18.0186 17.2559C18.0204 17.3566 18.0018 17.4566 17.9641 17.55C17.9264 17.6434 17.8703 17.7282 17.799 17.7994C17.7278 17.8706 17.643 17.9268 17.5496 17.9645C17.4562 18.0022 17.3562 18.0208 17.2555 18.019C17.1548 18.0172 17.0555 17.9952 16.9635 17.9542C16.8715 17.9132 16.7887 17.8541 16.72 17.7804L13.391 14.4524C12.3625 15.2808 11.1207 15.8013 9.80901 15.954C8.49727 16.1066 7.16912 15.885 5.97795 15.3149C4.78677 14.7448 3.78117 13.8493 3.07727 12.732C2.37338 11.6146 1.99991 10.321 2 9.00039Z" fill="#334155"/>
</svg>
