<svg width="41" height="40" viewBox="0 0 41 40" fill="none" xmlns="http://www.w3.org/2000/svg">
<path d="M22.3696 24.7409L30.5007 36.6664M18.6317 24.7409L10.5007 36.6664M23.834 21.9998C23.834 23.8407 22.3416 25.3331 20.5007 25.3331C18.6597 25.3331 17.1673 23.8407 17.1673 21.9998C17.1673 20.1588 18.6597 18.6665 20.5007 18.6665C22.3416 18.6665 23.834 20.1588 23.834 21.9998ZM29.0815 7.55358L9.44103 12.8162C8.99023 12.937 8.76482 12.9974 8.61614 13.1313C8.48536 13.2491 8.39522 13.4052 8.35863 13.5773C8.31703 13.773 8.37743 13.9984 8.49822 14.4492L9.96487 19.9228C10.0857 20.3736 10.1461 20.599 10.2799 20.7477C10.3977 20.8785 10.5538 20.9686 10.726 21.0052C10.9216 21.0468 11.1471 20.9864 11.5979 20.8656L31.2384 15.603L29.0815 7.55358ZM36.8213 15.8325C35.0181 16.3156 34.1165 16.5572 33.3337 16.3909C32.6452 16.2445 32.0206 15.8839 31.5496 15.3608C31.0141 14.7661 30.7725 13.8645 30.2893 12.0612L30.0305 11.0953C29.5474 9.29208 29.3058 8.39047 29.4722 7.60769C29.6185 6.91914 29.9791 6.2946 30.5022 5.82358C31.0969 5.2881 31.9985 5.04651 33.8018 4.56334C34.2526 4.44255 34.478 4.38215 34.6737 4.42374C34.8458 4.46033 35.0019 4.55048 35.1197 4.68126C35.2536 4.82994 35.314 5.05534 35.4348 5.50615L37.7641 14.1995C37.8849 14.6503 37.9453 14.8757 37.9037 15.0714C37.8671 15.2435 37.777 15.3997 37.6462 15.5174C37.4975 15.6513 37.2721 15.7117 36.8213 15.8325ZM6.33686 20.5498L8.59069 19.9459C9.0415 19.8251 9.2669 19.7647 9.41558 19.6309C9.54636 19.5131 9.63651 19.357 9.67309 19.1848C9.71469 18.9891 9.65429 18.7637 9.5335 18.3129L8.92959 16.0591C8.8088 15.6083 8.7484 15.3829 8.61453 15.2342C8.49677 15.1034 8.34064 15.0133 8.1685 14.9767C7.97281 14.9351 7.7474 14.9955 7.2966 15.1163L5.04277 15.7202C4.59196 15.841 4.36656 15.9014 4.21788 16.0353C4.0871 16.153 3.99695 16.3092 3.96037 16.4813C3.91877 16.677 3.97917 16.9024 4.09996 17.3532L4.70387 19.607C4.82466 20.0578 4.88506 20.2832 5.01893 20.4319C5.13669 20.5627 5.29282 20.6528 5.46496 20.6894C5.66065 20.731 5.88606 20.6706 6.33686 20.5498Z" stroke="#3B82F6" stroke-width="3.33333" stroke-linecap="round" stroke-linejoin="round"/>
</svg>
