<svg width="41" height="40" viewBox="0 0 41 40" fill="none" xmlns="http://www.w3.org/2000/svg">
<path d="M37.3333 15H4M24 29.1667L28.1667 25L24 20.8333M17.3333 20.8333L13.1667 25L17.3333 29.1667M4 13L4 27C4 29.8003 4 31.2004 4.54497 32.2699C5.02433 33.2108 5.78924 33.9757 6.73005 34.455C7.79961 35 9.19974 35 12 35H29.3333C32.1336 35 33.5337 35 34.6033 34.455C35.5441 33.9757 36.309 33.2108 36.7884 32.27C37.3333 31.2004 37.3333 29.8003 37.3333 27V13C37.3333 10.1997 37.3333 8.79961 36.7884 7.73005C36.309 6.78924 35.5441 6.02434 34.6033 5.54497C33.5337 5 32.1336 5 29.3333 5L12 5C9.19974 5 7.79961 5 6.73005 5.54497C5.78924 6.02433 5.02433 6.78924 4.54497 7.73005C4 8.79961 4 10.1997 4 13Z" stroke="#3B82F6" stroke-width="3.33333" stroke-linecap="round" stroke-linejoin="round"/>
</svg>
