<svg width="41" height="40" viewBox="0 0 41 40" fill="none" xmlns="http://www.w3.org/2000/svg">
<path d="M14.1665 35V11.6667C14.1665 10.1167 14.1665 9.34174 14.3369 8.7059C14.7992 6.98044 16.1469 5.63271 17.8724 5.17037C18.5082 5 19.2832 5 20.8332 5C22.3831 5 23.1581 5 23.7939 5.17037C25.5194 5.63271 26.8671 6.98044 27.3295 8.7059C27.4998 9.34174 27.4998 10.1167 27.4998 11.6667V35M9.49984 35H32.1665C34.0333 35 34.9668 35 35.6798 34.6367C36.307 34.3171 36.8169 33.8072 37.1365 33.18C37.4998 32.4669 37.4998 31.5335 37.4998 29.6667V17C37.4998 15.1332 37.4998 14.1997 37.1365 13.4867C36.8169 12.8595 36.307 12.3496 35.6798 12.03C34.9668 11.6667 34.0333 11.6667 32.1665 11.6667H9.49984C7.633 11.6667 6.69957 11.6667 5.98654 12.03C5.35933 12.3496 4.84939 12.8595 4.52982 13.4867C4.1665 14.1997 4.1665 15.1332 4.1665 17V29.6667C4.1665 31.5335 4.1665 32.4669 4.52982 33.18C4.84939 33.8072 5.35933 34.3171 5.98654 34.6367C6.69957 35 7.633 35 9.49984 35Z" stroke="#3B82F6" stroke-width="3.33333" stroke-linecap="round" stroke-linejoin="round"/>
</svg>
