<svg width="41" height="40" viewBox="0 0 41 40" fill="none" xmlns="http://www.w3.org/2000/svg">
<path d="M20.4993 20.0002H20.5159M26.3918 25.8928C18.5813 33.7033 9.6115 37.3967 6.35714 34.1424C3.10277 30.888 6.79623 21.9182 14.6067 14.1077C22.4172 6.2972 31.387 2.60373 34.6414 5.8581C37.8958 9.11247 34.2023 18.0823 26.3918 25.8928ZM26.3918 14.1074C34.2022 21.9179 37.8957 30.8877 34.6413 34.1421C31.387 37.3964 22.4171 33.703 14.6066 25.8925C6.79616 18.082 3.1027 9.11217 6.35707 5.8578C9.61144 2.60343 18.5813 6.29689 26.3918 14.1074ZM21.3326 20.0002C21.3326 20.4605 20.9595 20.8336 20.4993 20.8336C20.039 20.8336 19.6659 20.4605 19.6659 20.0002C19.6659 19.54 20.039 19.1669 20.4993 19.1669C20.9595 19.1669 21.3326 19.54 21.3326 20.0002Z" stroke="#3B82F6" stroke-width="3.33333" stroke-linecap="round" stroke-linejoin="round"/>
</svg>
