<svg width="19" height="18" viewBox="0 0 19 18" fill="none" xmlns="http://www.w3.org/2000/svg">
<path d="M9.15416 1.06438C9.26302 0.72936 9.73698 0.72936 9.84584 1.06438L11.6635 6.65856C11.7122 6.80839 11.8518 6.90983 12.0093 6.90983H17.8914C18.2437 6.90983 18.3901 7.3606 18.1051 7.56765L13.3465 11.025C13.219 11.1176 13.1657 11.2818 13.2144 11.4316L15.032 17.0258C15.1409 17.3608 14.7574 17.6394 14.4724 17.4323L9.71374 13.975C9.58629 13.8824 9.41371 13.8824 9.28626 13.975L4.52757 17.4323C4.24258 17.6394 3.85913 17.3608 3.96799 17.0258L5.78565 11.4316C5.83433 11.2818 5.781 11.1176 5.65355 11.025L0.894853 7.56765C0.609866 7.3606 0.75633 6.90983 1.10859 6.90983H6.99066C7.1482 6.90983 7.28782 6.80839 7.3365 6.65856L9.15416 1.06438Z" fill="#EAB308"/>
</svg>
